<?xml version="1.0" encoding="UTF-8"?>
<!DOCTYPE svg PUBLIC "-//W3C//DTD SVG 1.1//EN" "http://www.w3.org/Graphics/SVG/1.1/DTD/svg11.dtd">
<!-- Creator: CorelDRAW -->
<svg xmlns="http://www.w3.org/2000/svg" xml:space="preserve" width="1.63959in" height="1.82939in" version="1.1" style="shape-rendering:geometricPrecision; text-rendering:geometricPrecision; image-rendering:optimizeQuality; fill-rule:evenodd; clip-rule:evenodd"
viewBox="0 0 250.55 279.55"
 xmlns:xlink="http://www.w3.org/1999/xlink"
 xmlns:xodm="http://www.corel.com/coreldraw/odm/2003">
 <defs>
  <style type="text/css">
   <![CDATA[
    .fil12 {fill:#063258}
    .fil0 {fill:#0A2E55}
    .fil13 {fill:#0D2A49}
    .fil6 {fill:#0D2D51}
    .fil3 {fill:#0E2D4E}
    .fil10 {fill:#112E4E}
    .fil11 {fill:#122C44}
    .fil1 {fill:#132B4B}
    .fil4 {fill:#225AB2}
    .fil8 {fill:#235AB5}
    .fil7 {fill:#235AB7}
    .fil9 {fill:#255AB1}
    .fil16 {fill:#8F9BAE}
    .fil15 {fill:#AFBCCD}
    .fil14 {fill:#F3F6FA}
    .fil2 {fill:#F4FBFB}
    .fil5 {fill:#FCFEFD}
   ]]>
  </style>
 </defs>
 <g id="Layer_x0020_1">
  <metadata id="CorelCorpID_0Corel-Layer"/>
  <g id="_1859288737648">
   <g>
    <g>
     <path class="fil0" d="M52.18 143.69c2.83,-9.91 -5.35,-8.53 -14.48,-7.64l0.05 8.36 14.43 -0.73z"/>
     <path class="fil0" d="M61.6 174.53c-2.27,0.25 -14.67,4.73 -12.69,8.94 1.85,3.94 5.58,1.14 7.93,-0.44 6.43,-4.33 6.14,-3.59 4.76,-8.5z"/>
    </g>
    <g>
     <path class="fil1" d="M128.62 67.93l0.84 -15.51 -8.37 -0.01c-0.48,9.65 -3.08,17.06 7.53,15.53z"/>
     <path class="fil1" d="M171.11 214.6c-1.56,-3.7 -4.43,-10.91 -8.18,-12.33l-2.94 1.57c-0.15,3.87 4.23,10.93 7.01,13.46l4.1 -2.7z"/>
     <path class="fil1" d="M189.6 106.05c4.59,-1.44 10.16,-4.69 12.67,-7.73l-2.53 -3.79c-2.48,0.59 -10.67,5.39 -12.62,7.18l2.48 4.34z"/>
    </g>
    <g>
     <path class="fil2" d="M31.99 228.73c0.74,2.26 3.46,3.38 6.8,6.64 12.96,12.66 43.21,28.61 61.46,31.57 -8.03,-4.91 -63.11,-37.27 -68.26,-38.2z"/>
     <path class="fil2" d="M218.32 228.81c-5.06,0.71 -59.6,33.26 -68.27,38.21 13.22,-1.96 27.68,-9.18 38.25,-15.17 5.93,-3.36 25.07,-16.45 29.17,-21.42 1.51,-1.83 0.33,0.29 0.85,-1.62z"/>
    </g>
    <g>
     <path class="fil3" d="M128.5 143.5c-8.69,2.1 -9.97,-5.04 -3.31,-7.1 4.03,1.52 4.21,2.59 3.31,7.1zm52.81 -48.63c3.69,-5.94 -3.38,-12.4 -10.6,-3.74l-25.04 23.68c-4.76,3.9 -7.45,7.85 -12.08,11.81 -5.39,4.61 -2.52,1.42 -9.26,1.82 -5.76,0.34 -3.82,3.2 -9.12,0.83l-29.86 -18.07c-8.05,-4.53 -12.2,3 -5.42,7.53 8.13,5.43 23.33,13.14 30.47,18.23 5.41,3.86 1.4,11.23 10.31,14.62 7.17,2.73 14.42,-1.94 15.92,-7.09 3.6,-12.29 -6.28,-2.63 13.29,-21.43 2.27,-2.18 4,-3.47 6.42,-5.52 7.81,-6.61 7.5,-7.58 12.07,-11.77 1.54,-1.41 12.83,-10.8 12.89,-10.9z"/>
     <path class="fil3" d="M121.33 227.86l8 0.03c0,-7.01 2.61,-19.56 -7.47,-14.5 -1.73,3.58 -0.87,9.9 -0.53,14.47z"/>
     <path class="fil3" d="M48.07 98.3c1.98,2.26 9.14,7.51 13.12,7.54l2.16 -5.15c-5.11,-1.5 -8.14,-4.97 -13.12,-6.41l-2.16 4.02z"/>
     <path class="fil3" d="M79.08 65.27c0.97,3.73 5.11,11.62 8.69,13.23l3.03 -2c-0.63,-2.9 -1.82,-4.41 -3.27,-7.11l-4.09 -6.16 -4.36 2.04z"/>
    </g>
    <g>
     <path class="fil4" d="M216.25 93.1c1.59,7.09 5.3,13.56 7.31,21.08 10.62,39.78 -6.1,63.84 -6.65,72.44 3.83,2.54 20.74,11.96 23.17,12.65l0.33 -118.76c-7.52,1.67 -16.28,10.17 -24.15,12.59z"/>
     <path class="fil4" d="M15.6 71.46l5.12 4.01c4.92,2.77 15.31,9.28 19.13,9.93 6.86,-12.2 18.7,-23.16 31.82,-31.67 15.33,-9.94 29.69,-12.91 48.66,-15.69l0.07 -25.32c-6.51,1.65 -20.45,10.89 -26.69,14.4l-78.11 44.32z"/>
     <path class="fil4" d="M16.41 207.64c2.03,3.18 8.27,5.78 12.85,8.46l38.77 21.81c8.06,4.67 18.93,10.81 26,14.73 6.22,3.45 20.84,13.18 26.51,14.16l-0.08 -24.75c-10.82,-1.52 -17.43,-2.56 -27.13,-5.51 -3.92,-1.19 -8.12,-3.06 -11.39,-4.56 -4,-1.84 -6.72,-3.65 -10.16,-5.71 -22.74,-13.6 -28.72,-28.68 -33.09,-31.81 -4.69,1.79 -19.91,10.09 -22.3,13.18z"/>
     <path class="fil4" d="M129.8 266.82c6.25,-0.98 19.78,-10.38 27.26,-14.43l64.68 -36.67c1.96,-1.16 4.01,-2.41 6.32,-3.64 5.97,-3.19 4.6,-2.3 6,-5.04 -4.54,-2.79 -18.54,-11.88 -23.38,-12.06 -5.61,10.84 -20.22,24.48 -32.57,31.78 -16.06,9.49 -27.1,12.36 -48.25,15.32l-0.06 24.74z"/>
    </g>
    <path class="fil5" d="M159.99 203.84l2.94 -1.57c3.75,1.42 6.62,8.62 8.18,12.33l-4.1 2.7c-2.78,-2.53 -7.17,-9.59 -7.01,-13.46zm27.59 -26.02l1.5 -2.88c3.93,-0.3 3.49,0.5 6.93,2.6 3.23,1.98 3.57,1.41 6.19,4.26l-1.81 3.68c-3.03,0.28 -9.92,-3.76 -12.02,-6.32 -0.16,-0.2 -0.54,-1.11 -0.78,-1.33zm25.4 -42.02l0.12 8.65c-5.29,-0.14 -15.85,2.2 -15.76,-4.39 0.09,-6.48 10.5,-4.16 15.64,-4.26zm-23.38 -29.75l-2.48 -4.34c1.95,-1.8 10.14,-6.59 12.62,-7.18l2.53 3.79c-2.51,3.04 -8.08,6.29 -12.67,7.73zm-141.53 -7.75l2.16 -4.02c4.98,1.44 8.01,4.91 13.12,6.41l-2.16 5.15c-3.98,-0.03 -11.14,-5.27 -13.12,-7.54zm133.24 -3.43c-0.06,0.1 -11.36,9.49 -12.89,10.9 -4.57,4.2 -4.26,5.16 -12.07,11.77 -2.42,2.05 -4.15,3.34 -6.42,5.52 -19.57,18.8 -9.69,9.14 -13.29,21.43 -1.51,5.15 -8.75,9.82 -15.92,7.09 -8.91,-3.39 -4.9,-10.76 -10.31,-14.62 -7.14,-5.09 -22.34,-12.8 -30.47,-18.23 -6.77,-4.52 -2.63,-12.06 5.42,-7.53l29.86 18.07c5.3,2.37 3.36,-0.49 9.12,-0.83 6.74,-0.39 3.87,2.79 9.26,-1.82 4.63,-3.96 7.31,-7.91 12.08,-11.81l25.04 -23.68c7.22,-8.66 14.29,-2.2 10.6,3.74zm-17.35 -16.52l-4.31 -1.88c0.58,-2.73 5.05,-12.96 8.28,-12.84l3.39 1.5c-0.82,3.24 -5.2,11 -7.36,13.21zm-73.16 -1.85l-3.03 2c-3.58,-1.61 -7.72,-9.5 -8.69,-13.23l4.36 -2.04 4.09 6.16c1.45,2.7 2.64,4.21 3.27,7.11zm37.82 -8.57c-10.61,1.53 -8.01,-5.88 -7.53,-15.53l8.37 0.01 -0.84 15.51zm-87.93 35.6c0.59,3.77 1.76,2.45 9.47,7.17l53.71 31.77c5.43,4.74 0.11,11.04 17.23,17.58 -0.1,8.22 -1.18,49.27 0.77,53.34 10.07,-5.07 7.47,7.48 7.47,14.5l-8 -0.03 -0.21 4.81c21.54,-0.27 34.37,-3.43 50.99,-12.92 12.75,-7.28 24.66,-19.55 32.34,-32.22 27.87,-45.94 9.2,-105.35 -36.38,-129.11 -14.81,-7.72 -33.36,-12.32 -53.05,-10.14 -23.9,2.64 -48.61,16.77 -62.07,34.47 -3.96,5.2 -10.01,13.61 -12.27,20.79z"/>
    <path class="fil6" d="M218.32 228.81c-0.52,1.91 0.66,-0.21 -0.85,1.62 -4.1,4.97 -23.24,18.06 -29.17,21.42 -10.56,5.99 -25.03,13.21 -38.25,15.17 8.68,-4.95 63.21,-37.5 68.27,-38.21zm-186.34 -0.08c5.15,0.93 60.23,33.3 68.26,38.2 -18.25,-2.96 -48.5,-18.91 -61.46,-31.57 -3.33,-3.26 -6.05,-4.38 -6.8,-6.64zm0 0l-2.47 -1.59c5.84,0.61 0.82,-0.51 2.47,1.59zm186.34 0.08c0.16,-0.29 0.42,-1.06 0.52,-0.84 0.24,0.52 -0.44,-0.77 2.38,-1.74l-2.9 2.58zm-88.52 38.01l0.06 -24.74c21.15,-2.96 32.18,-5.83 48.25,-15.32 12.35,-7.3 26.95,-20.94 32.57,-31.78 4.85,0.18 18.84,9.27 23.38,12.06 -1.4,2.74 -0.03,1.85 -6,5.04 -2.31,1.23 -4.37,2.48 -6.32,3.64l-64.68 36.67c-7.48,4.05 -21.01,13.45 -27.26,14.43zm-113.39 -59.18c2.38,-3.09 17.61,-11.39 22.3,-13.18 4.37,3.13 10.35,18.21 33.09,31.81 3.45,2.06 6.16,3.88 10.16,5.71 3.26,1.5 7.47,3.37 11.39,4.56 9.7,2.94 16.3,3.99 27.13,5.51l0.08 24.75c-5.67,-0.99 -20.29,-10.72 -26.51,-14.16 -7.07,-3.92 -17.95,-10.06 -26,-14.73l-38.77 -21.81c-4.58,-2.69 -10.82,-5.28 -12.85,-8.46zm104.71 25.03c-10.17,-1.54 -14.8,-1.52 -24.36,-4.71 -5.86,-1.95 -13.46,-5.33 -19.03,-8.72 -23.44,-14.22 -41.01,-39.44 -44.37,-68.5 -1.25,-10.83 -0.2,-16.12 0.92,-25.69 0.48,-4.06 3.76,-18.16 6.41,-21.53 2.26,-7.18 8.32,-15.59 12.27,-20.79 13.45,-17.7 38.16,-31.83 62.07,-34.47 19.69,-2.17 38.24,2.42 53.05,10.14 45.59,23.76 64.26,83.17 36.38,129.11 -7.69,12.67 -19.59,24.94 -32.34,32.22 -16.63,9.49 -29.45,12.65 -50.99,12.92zm95.13 -139.57c7.87,-2.42 16.63,-10.92 24.15,-12.59l-0.33 118.76c-2.42,-0.69 -19.33,-10.11 -23.17,-12.65 0.55,-8.6 17.27,-32.67 6.65,-72.44 -2.01,-7.51 -5.71,-13.99 -7.31,-21.08zm-206.15 -12.55l23.39 13.24c0.1,-0.19 0.41,0.34 0.6,0.54 -5.95,16.3 -10.87,25.6 -10.7,46.72 0.22,26.15 9.73,37.59 10.28,45.61 -4.5,2.47 -19.57,11.64 -23.73,12.31l0.16 -118.41zm200.43 4.81c-12.79,-23.33 -42.48,-41.23 -68.31,-45.67 -12.85,-2.21 -12.25,1.41 -12.43,-6.87 -0.14,-6.44 0.02,-13.2 0,-19.7 6.95,1.28 20.5,10.32 27.52,14.37l77.4 43.97c-1.86,2.93 -8.05,5.69 -11.46,7.58 -4.4,2.43 -7.91,5.47 -12.72,6.32zm-116.81 -58.22c6.24,-3.51 20.18,-12.75 26.69,-14.4l-0.07 25.32c-18.97,2.78 -33.33,5.75 -48.66,15.69 -13.12,8.51 -24.96,19.47 -31.82,31.67 -3.81,-0.66 -14.21,-7.16 -19.13,-9.93l-5.12 -4.01 78.11 -44.32zm-92.31 180.51c1.58,7.76 24.69,28.87 31.37,34.77 10.06,8.89 25.03,18.45 40.24,25.42 35.11,16.09 71.96,15.48 106.41,-0.96 19.4,-9.26 44.72,-27.26 57.06,-42.36 5.67,-6.94 12.1,-12.05 12.96,-19.81 2.09,-18.85 0.37,-46.78 0.4,-66.63 0.02,-16.94 1.96,-50.31 -0.68,-65.41 -1.14,-6.52 -10.19,-9.69 -19.12,-14.63 -7.37,-4.07 -13.56,-7.79 -20.85,-11.9 -14.12,-7.95 -27.86,-15.71 -42.03,-23.61 -6.68,-3.72 -38.59,-23.58 -43.59,-22.46l-105.83 59.35c-14.62,8.78 -16.12,6.84 -16.88,15.99 -1.12,13.42 -1.31,123.09 0.56,132.26z"/>
    <path class="fil7" d="M83.44 217.02c-4.5,-1.19 -4.37,-2.85 -2.3,-6.64 1.8,-3.29 3.28,-5.78 5.28,-7.7l4.43 1.44c-0.29,3.54 -4.9,11.04 -7.41,12.91zm-21.84 -42.49c1.38,4.91 1.67,4.17 -4.76,8.5 -2.35,1.58 -6.08,4.38 -7.93,0.44 -1.97,-4.2 10.43,-8.69 12.69,-8.94zm-9.42 -30.85l-14.43 0.73 -0.05 -8.36c9.13,-0.89 17.31,-2.27 14.48,7.64zm68.94 88.98l0.21 -4.81c-0.34,-4.57 -1.19,-10.89 0.53,-14.47 -1.94,-4.08 -0.87,-45.12 -0.77,-53.34 -17.12,-6.54 -11.8,-12.84 -17.23,-17.58l-53.71 -31.77c-7.71,-4.71 -8.88,-3.4 -9.47,-7.17 -2.65,3.37 -5.93,17.46 -6.41,21.53 -1.12,9.57 -2.17,14.85 -0.92,25.69 3.36,29.06 20.94,54.28 44.37,68.5 5.57,3.38 13.18,6.76 19.03,8.72 9.56,3.19 14.19,3.17 24.36,4.71z"/>
    <path class="fil8" d="M9.94 198.96c4.16,-0.68 19.23,-9.84 23.73,-12.31 -0.55,-8.01 -10.05,-19.46 -10.28,-45.61 -0.18,-21.12 4.75,-30.42 10.7,-46.72 -0.19,-0.19 -0.5,-0.72 -0.6,-0.54l-23.39 -13.24 -0.16 118.41z"/>
    <path class="fil9" d="M210.52 85.36c4.81,-0.85 8.32,-3.89 12.72,-6.32 3.42,-1.89 9.61,-4.64 11.46,-7.58l-77.4 -43.97c-7.02,-4.04 -20.57,-13.09 -27.52,-14.37 0.02,6.49 -0.14,13.26 -0,19.7 0.18,8.27 -0.43,4.66 12.43,6.87 25.83,4.43 55.52,22.34 68.31,45.67z"/>
    <path class="fil10" d="M212.98 135.8c-5.14,0.09 -15.55,-2.22 -15.64,4.26 -0.09,6.59 10.47,4.26 15.76,4.39l-0.12 -8.65z"/>
    <path class="fil11" d="M163.96 78.35c2.17,-2.21 6.54,-9.98 7.36,-13.21l-3.39 -1.5c-3.23,-0.12 -7.7,10.1 -8.28,12.84l4.31 1.88z"/>
    <path class="fil12" d="M83.44 217.02c2.52,-1.87 7.13,-9.37 7.41,-12.91l-4.43 -1.44c-2,1.92 -3.48,4.41 -5.28,7.7 -2.08,3.8 -2.2,5.46 2.3,6.64z"/>
    <path class="fil13" d="M196.01 177.54c-3.44,-2.1 -2.99,-2.9 -6.93,-2.6l-1.5 2.88c0.25,0.22 0.62,1.13 0.78,1.33 2.09,2.56 8.99,6.6 12.02,6.32l1.81 -3.68c-2.61,-2.84 -2.95,-2.28 -6.19,-4.26z"/>
    <path class="fil14" d="M128.5 143.5c0.9,-4.5 0.72,-5.57 -3.31,-7.1 -6.66,2.05 -5.39,9.2 3.31,7.1z"/>
    <path class="fil15" d="M31.99 228.73c-1.65,-2.1 3.36,-0.98 -2.47,-1.59l2.47 1.59z"/>
    <path class="fil16" d="M218.32 228.81l2.9 -2.58c-2.81,0.97 -2.14,2.26 -2.38,1.74 -0.1,-0.22 -0.36,0.55 -0.52,0.84z"/>
   </g>
  </g>
 </g>
</svg>
