<?xml version="1.0" encoding="UTF-8"?>
<!DOCTYPE svg PUBLIC "-//W3C//DTD SVG 1.1//EN" "http://www.w3.org/Graphics/SVG/1.1/DTD/svg11.dtd">
<!-- Creator: CorelDRAW -->
<svg xmlns="http://www.w3.org/2000/svg" xml:space="preserve" width="2.84549in" height="2.84549in" version="1.1" style="shape-rendering:geometricPrecision; text-rendering:geometricPrecision; image-rendering:optimizeQuality; fill-rule:evenodd; clip-rule:evenodd"
viewBox="0 0 850.19 850.19"
 xmlns:xlink="http://www.w3.org/1999/xlink"
 xmlns:xodm="http://www.corel.com/coreldraw/odm/2003">
 <defs>
  <style type="text/css">
   <![CDATA[
    .fil13 {fill:#063258}
    .fil1 {fill:#0A2E55}
    .fil14 {fill:#0D2A49}
    .fil7 {fill:#0D2D51}
    .fil4 {fill:#0E2D4E}
    .fil11 {fill:#112E4E}
    .fil12 {fill:#122C44}
    .fil2 {fill:#132B4B}
    .fil5 {fill:#225AB2}
    .fil9 {fill:#235AB5}
    .fil8 {fill:#235AB7}
    .fil10 {fill:#255AB1}
    .fil17 {fill:#8F9BAE}
    .fil16 {fill:#AFBCCD}
    .fil15 {fill:#F3F6FA}
    .fil3 {fill:#F4FBFB}
    .fil6 {fill:#FCFEFD}
    .fil0 {fill:white}
   ]]>
  </style>
 </defs>
 <g id="Layer_x0020_1">
  <metadata id="CorelCorpID_0Corel-Layer"/>
  <g id="_1859288447360">
   <rect class="fil0" width="850.19" height="850.19"/>
   <g>
    <g>
     <path class="fil1" d="M282.18 432.74c5.54,-19.37 -10.46,-16.67 -28.31,-14.93l0.09 16.35 28.22 -1.42z"/>
     <path class="fil1" d="M300.61 493.05c-4.43,0.49 -28.68,9.26 -24.82,17.47 3.62,7.7 10.92,2.24 15.51,-0.86 12.58,-8.47 12.01,-7.01 9.31,-16.62z"/>
    </g>
    <g>
     <path class="fil2" d="M431.63 284.61l1.63 -30.33 -16.36 -0.03c-0.93,18.87 -6.03,33.35 14.73,30.36z"/>
     <path class="fil2" d="M514.72 571.39c-3.05,-7.24 -8.65,-21.32 -15.99,-24.1l-5.75 3.06c-0.3,7.57 8.27,21.36 13.71,26.31l8.02 -5.27z"/>
     <path class="fil2" d="M550.87 359.15c8.98,-2.81 19.86,-9.17 24.77,-15.11l-4.94 -7.42c-4.85,1.16 -20.86,10.53 -24.67,14.04l4.84 8.49z"/>
    </g>
    <g>
     <path class="fil3" d="M242.69 599.03c1.45,4.42 6.77,6.61 13.29,12.97 25.35,24.76 84.49,55.94 120.17,61.72 -15.7,-9.59 -123.39,-72.87 -133.46,-74.7z"/>
     <path class="fil3" d="M607.03 599.18c-9.89,1.38 -116.52,65.02 -133.49,74.71 25.85,-3.82 54.13,-17.95 74.79,-29.66 11.59,-6.57 49.03,-32.16 57.04,-41.88 2.95,-3.58 0.64,0.56 1.66,-3.17z"/>
    </g>
    <g>
     <path class="fil4" d="M431.4 432.38c-17,4.1 -19.5,-9.86 -6.47,-13.87 7.88,2.98 8.24,5.07 6.47,13.87zm103.26 -95.09c7.21,-11.62 -6.62,-24.25 -20.73,-7.31l-48.96 46.29c-9.31,7.63 -14.56,15.35 -23.61,23.09 -10.53,9.01 -4.93,2.78 -18.1,3.55 -11.26,0.66 -7.46,6.27 -17.83,1.62l-58.38 -35.34c-15.75,-8.86 -23.85,5.87 -10.6,14.72 15.9,10.62 45.61,25.7 59.58,35.65 10.58,7.54 2.74,21.95 20.16,28.58 14.02,5.34 28.19,-3.79 31.13,-13.86 7.03,-24.02 -12.28,-5.14 25.98,-41.89 4.44,-4.26 7.82,-6.78 12.56,-10.79 15.27,-12.93 14.67,-14.81 23.6,-23.01 3.01,-2.76 25.09,-21.11 25.21,-21.3z"/>
     <path class="fil4" d="M417.38 597.32l15.64 0.06c0,-13.71 5.09,-38.25 -14.6,-28.34 -3.37,7 -1.7,19.35 -1.04,28.29z"/>
     <path class="fil4" d="M274.14 344c3.88,4.42 17.87,14.68 25.65,14.73l4.23 -10.07c-10,-2.92 -15.92,-9.71 -25.65,-12.53l-4.23 7.86z"/>
     <path class="fil4" d="M334.77 279.42c1.9,7.3 9.98,22.72 16.99,25.86l5.92 -3.92c-1.22,-5.66 -3.55,-8.62 -6.39,-13.89l-7.99 -12.05 -8.53 3.99z"/>
    </g>
    <g>
     <path class="fil5" d="M602.97 333.84c3.11,13.86 10.36,26.52 14.29,41.22 20.77,77.77 -11.93,124.82 -13.01,141.65 7.5,4.97 40.56,23.38 45.3,24.73l0.65 -232.21c-14.71,3.26 -31.84,19.88 -47.23,24.61z"/>
     <path class="fil5" d="M210.66 291.52l10.02 7.85c9.62,5.42 29.94,18.14 37.4,19.42 13.41,-23.85 36.57,-45.29 62.22,-61.92 29.97,-19.43 58.05,-25.23 95.13,-30.68l0.14 -49.5c-12.72,3.23 -39.98,21.3 -52.18,28.16l-152.73 86.67z"/>
     <path class="fil5" d="M212.25 557.79c3.97,6.22 16.17,11.3 25.13,16.55l75.81 42.65c15.75,9.12 37.02,21.13 50.84,28.8 12.16,6.74 40.74,25.76 51.83,27.7l-0.15 -48.4c-21.16,-2.98 -34.08,-5.01 -53.04,-10.77 -7.66,-2.32 -15.88,-5.99 -22.26,-8.92 -7.83,-3.59 -13.14,-7.14 -19.87,-11.17 -44.46,-26.59 -56.15,-56.08 -64.69,-62.19 -9.16,3.49 -38.93,19.73 -43.59,25.76z"/>
     <path class="fil5" d="M433.94 673.5c12.22,-1.93 38.68,-20.3 53.3,-28.22l126.46 -71.71c3.83,-2.26 7.85,-4.71 12.36,-7.12 11.67,-6.23 8.99,-4.49 11.73,-9.85 -8.89,-5.46 -36.24,-23.23 -45.72,-23.58 -10.98,21.19 -39.53,47.87 -63.68,62.13 -31.41,18.55 -52.98,24.17 -94.33,29.95l-0.12 48.38z"/>
    </g>
    <path class="fil6" d="M492.98 550.35l5.75 -3.06c7.34,2.78 12.94,16.86 15.99,24.1l-8.02 5.27c-5.45,-4.95 -14.01,-18.74 -13.71,-26.31zm53.94 -50.87l2.93 -5.64c7.69,-0.59 6.82,0.98 13.54,5.08 6.32,3.86 6.99,2.76 12.1,8.32l-3.53 7.19c-5.92,0.55 -19.41,-7.35 -23.5,-12.35 -0.32,-0.4 -1.05,-2.18 -1.53,-2.61zm49.65 -82.17l0.23 16.92c-10.35,-0.27 -30.98,4.3 -30.81,-8.59 0.17,-12.66 20.53,-8.14 30.58,-8.32zm-45.71 -58.16l-4.84 -8.49c3.81,-3.51 19.82,-12.89 24.67,-14.04l4.94 7.42c-4.91,5.94 -15.79,12.31 -24.77,15.11zm-276.73 -15.15l4.23 -7.86c9.73,2.82 15.65,9.61 25.65,12.53l-4.23 10.07c-7.78,-0.06 -21.77,-10.31 -25.65,-14.73zm260.51 -6.71c-0.12,0.19 -22.2,18.55 -25.21,21.3 -8.93,8.2 -8.33,10.08 -23.6,23.01 -4.73,4.01 -8.12,6.53 -12.56,10.79 -38.26,36.76 -18.95,17.87 -25.98,41.89 -2.95,10.07 -17.12,19.2 -31.13,13.86 -17.42,-6.63 -9.58,-21.04 -20.16,-28.58 -13.97,-9.95 -43.68,-25.03 -59.58,-35.65 -13.25,-8.85 -5.15,-23.58 10.6,-14.72l58.38 35.34c10.36,4.64 6.57,-0.96 17.83,-1.62 13.17,-0.77 7.58,5.45 18.1,-3.55 9.05,-7.74 14.3,-15.47 23.61,-23.09l48.96 -46.29c14.11,-16.93 27.94,-4.31 20.73,7.31zm-33.93 -32.31l-8.42 -3.67c1.14,-5.35 9.88,-25.33 16.2,-25.1l6.63 2.93c-1.61,6.33 -10.16,21.52 -14.4,25.83zm-143.05 -3.61l-5.92 3.92c-7.01,-3.15 -15.09,-18.57 -16.99,-25.86l8.53 -3.99 7.99 12.05c2.84,5.27 5.17,8.23 6.39,13.89zm73.95 -16.75c-20.75,2.99 -15.66,-11.49 -14.73,-30.36l16.36 0.03 -1.63 30.33zm-171.93 69.61c1.15,7.36 3.43,4.8 18.51,14.02l105.03 62.12c10.62,9.27 0.21,21.58 33.68,34.38 -0.19,16.08 -2.3,96.33 1.5,104.3 19.69,-9.91 14.6,14.63 14.6,28.34l-15.64 -0.06 -0.4 9.4c42.12,-0.52 67.19,-6.7 99.7,-25.26 24.94,-14.23 48.21,-38.22 63.24,-63 54.5,-89.83 17.99,-205.99 -71.14,-252.45 -28.97,-15.1 -65.23,-24.08 -103.73,-19.84 -46.74,5.15 -95.05,32.78 -121.36,67.39 -7.73,10.17 -19.58,26.61 -24,40.65z"/>
    <path class="fil7" d="M607.03 599.18c-1.02,3.74 1.28,-0.41 -1.66,3.17 -8.01,9.72 -45.45,35.31 -57.04,41.88 -20.65,11.71 -48.94,25.83 -74.79,29.66 16.96,-9.69 123.6,-73.33 133.49,-74.71zm-364.33 -0.15c10.06,1.83 117.76,65.11 133.46,74.7 -35.68,-5.79 -94.82,-36.97 -120.17,-61.72 -6.52,-6.37 -11.84,-8.56 -13.29,-12.97zm0 0l-4.83 -3.11c11.41,1.19 1.6,-0.99 4.83,3.11zm364.33 0.15c0.31,-0.56 0.82,-2.07 1.02,-1.64 0.46,1.01 -0.85,-1.52 4.65,-3.41l-5.67 5.05zm-173.09 74.32l0.12 -48.38c41.35,-5.78 62.93,-11.4 94.33,-29.95 24.15,-14.26 52.7,-40.94 63.68,-62.13 9.48,0.34 36.84,18.12 45.72,23.58 -2.74,5.36 -0.06,3.62 -11.73,9.85 -4.52,2.41 -8.54,4.85 -12.36,7.12l-126.46 71.71c-14.62,7.91 -41.08,26.29 -53.3,28.22zm-221.7 -115.72c4.66,-6.04 34.43,-22.27 43.59,-25.76 8.54,6.12 20.24,35.6 64.69,62.19 6.74,4.03 12.04,7.58 19.87,11.17 6.38,2.93 14.6,6.59 22.26,8.92 18.96,5.76 31.88,7.79 53.04,10.77l0.15 48.4c-11.08,-1.93 -39.66,-20.95 -51.83,-27.7 -13.82,-7.66 -35.09,-19.67 -50.84,-28.8l-75.81 -42.65c-8.96,-5.25 -21.16,-10.33 -25.13,-16.55zm204.73 48.94c-19.88,-3.01 -28.94,-2.97 -47.63,-9.21 -11.45,-3.82 -26.32,-10.43 -37.22,-17.04 -45.82,-27.8 -80.18,-77.11 -86.76,-133.93 -2.45,-21.18 -0.39,-31.52 1.8,-50.23 0.93,-7.95 7.36,-35.5 12.53,-42.09 4.42,-14.03 16.26,-30.47 24,-40.65 26.31,-34.6 74.62,-62.24 121.36,-67.39 38.49,-4.25 74.76,4.74 103.73,19.84 89.13,46.46 125.64,162.62 71.14,252.45 -15.03,24.78 -38.31,48.77 -63.24,63 -32.51,18.55 -57.58,24.73 -99.7,25.26zm185.99 -272.89c15.39,-4.73 32.52,-21.35 47.23,-24.61l-0.65 232.21c-4.74,-1.35 -37.8,-19.77 -45.3,-24.73 1.08,-16.82 33.78,-63.87 13.01,-141.65 -3.92,-14.69 -11.17,-27.36 -14.29,-41.22zm-403.08 -24.55l45.74 25.88c0.2,-0.37 0.81,0.67 1.17,1.05 -11.62,31.87 -21.26,50.05 -20.91,91.35 0.43,51.13 19.02,73.5 20.09,89.17 -8.8,4.84 -38.26,22.75 -46.4,24.07l0.31 -231.53zm391.88 9.4c-25.01,-45.62 -83.07,-80.62 -133.57,-89.29 -25.13,-4.31 -23.96,2.75 -24.3,-13.43 -0.27,-12.6 0.03,-25.82 0,-38.51 13.6,2.51 40.08,20.19 53.81,28.09l151.34 85.97c-3.63,5.73 -15.73,11.12 -22.42,14.82 -8.6,4.75 -15.46,10.7 -24.87,12.35zm-228.39 -113.83c12.2,-6.87 39.46,-24.93 52.18,-28.16l-0.14 49.5c-37.09,5.44 -65.16,11.25 -95.13,30.68 -25.65,16.63 -48.81,38.07 -62.22,61.92 -7.46,-1.28 -27.78,-14 -37.4,-19.42l-10.02 -7.85 152.73 -86.67zm-180.49 352.93c3.08,15.17 48.28,56.46 61.34,67.99 19.67,17.37 48.94,36.07 78.67,49.69 68.64,31.45 140.7,30.26 208.05,-1.88 37.93,-18.1 87.44,-53.3 111.57,-82.83 11.09,-13.57 23.66,-23.57 25.34,-38.74 4.08,-36.86 0.73,-91.48 0.79,-130.27 0.05,-33.12 3.84,-98.37 -1.32,-127.89 -2.22,-12.74 -19.92,-18.95 -37.39,-28.61 -14.41,-7.97 -26.51,-15.24 -40.78,-23.27 -27.61,-15.55 -54.47,-30.72 -82.18,-46.17 -13.05,-7.28 -75.45,-46.1 -85.23,-43.91l-206.93 116.04c-28.59,17.16 -31.52,13.38 -33.01,31.26 -2.2,26.24 -2.56,240.67 1.09,258.6z"/>
    <path class="fil8" d="M343.3 576.13c-8.81,-2.32 -8.55,-5.57 -4.49,-12.99 3.52,-6.44 6.41,-11.31 10.33,-15.06l8.67 2.81c-0.56,6.92 -9.57,21.59 -14.5,25.24zm-42.69 -83.08c2.7,9.6 3.27,8.15 -9.31,16.62 -4.59,3.09 -11.89,8.56 -15.51,0.86 -3.86,-8.22 20.38,-16.98 24.82,-17.47zm-18.43 -60.31l-28.22 1.42 -0.09 -16.35c17.85,-1.74 33.85,-4.44 28.31,14.93zm134.8 173.98l0.4 -9.4c-0.66,-8.94 -2.34,-21.29 1.04,-28.29 -3.8,-7.97 -1.69,-88.22 -1.5,-104.3 -33.47,-12.79 -23.06,-25.11 -33.68,-34.38l-105.03 -62.12c-15.08,-9.22 -17.36,-6.65 -18.51,-14.02 -5.17,6.59 -11.6,34.14 -12.53,42.09 -2.19,18.71 -4.25,29.04 -1.8,50.23 6.58,56.82 40.94,106.13 86.76,133.93 10.9,6.61 25.77,13.22 37.22,17.04 18.69,6.24 27.75,6.19 47.63,9.21z"/>
    <path class="fil9" d="M199.58 540.82c8.14,-1.32 37.6,-19.24 46.4,-24.07 -1.07,-15.67 -19.66,-38.05 -20.09,-89.17 -0.35,-41.3 9.29,-59.48 20.91,-91.35 -0.37,-0.38 -0.98,-1.42 -1.17,-1.05l-45.74 -25.88 -0.31 231.53z"/>
    <path class="fil10" d="M591.77 318.69c9.41,-1.66 16.27,-7.6 24.87,-12.35 6.68,-3.69 18.78,-9.08 22.42,-14.82l-151.34 -85.97c-13.73,-7.91 -40.22,-25.59 -53.81,-28.09 0.03,12.7 -0.27,25.92 -0,38.51 0.34,16.18 -0.83,9.12 24.3,13.43 50.5,8.67 108.56,43.67 133.57,89.29z"/>
    <path class="fil11" d="M596.58 417.31c-10.05,0.18 -30.41,-4.34 -30.58,8.32 -0.17,12.89 20.47,8.32 30.81,8.59l-0.23 -16.92z"/>
    <path class="fil12" d="M500.73 304.98c4.24,-4.32 12.79,-19.51 14.4,-25.83l-6.63 -2.93c-6.32,-0.23 -15.05,19.75 -16.2,25.1l8.42 3.67z"/>
    <path class="fil13" d="M343.3 576.13c4.92,-3.65 13.93,-18.31 14.5,-25.24l-8.67 -2.81c-3.91,3.75 -6.8,8.62 -10.33,15.06 -4.06,7.42 -4.31,10.67 4.49,12.99z"/>
    <path class="fil14" d="M563.39 498.93c-6.72,-4.1 -5.85,-5.67 -13.54,-5.08l-2.93 5.64c0.48,0.43 1.21,2.22 1.53,2.61 4.1,5 17.58,12.9 23.5,12.35l3.53 -7.19c-5.11,-5.56 -5.78,-4.46 -12.1,-8.32z"/>
    <path class="fil15" d="M431.4 432.38c1.77,-8.81 1.41,-10.9 -6.47,-13.87 -13.03,4.01 -10.53,17.98 6.47,13.87z"/>
    <path class="fil16" d="M242.69 599.03c-3.23,-4.11 6.58,-1.93 -4.83,-3.11l4.83 3.11z"/>
    <path class="fil17" d="M607.03 599.18l5.67 -5.05c-5.5,1.9 -4.19,4.42 -4.65,3.41 -0.2,-0.43 -0.71,1.08 -1.02,1.64z"/>
   </g>
  </g>
 </g>
</svg>
